<svg width="2191" height="655" viewBox="0 0 2191 655" fill="none" xmlns="http://www.w3.org/2000/svg">
<path d="M425.251 88.9233C431.79 82.9801 441.909 83.4625 447.852 90.0014L491.003 137.477C496.946 144.016 496.463 154.135 489.924 160.079L141.076 477.136C134.537 483.079 124.418 482.596 118.475 476.057L75.3232 428.582C71.4981 424.373 70.3353 418.681 71.7353 413.575C58.6962 406.396 46.5998 396.979 36.0292 385.349C-15.4473 328.713 -11.2639 241.072 45.373 189.596C102.01 138.121 189.653 142.304 241.13 198.94C251.082 209.89 258.952 221.999 264.767 234.782L425.251 88.9233ZM128.943 203.902C85.2096 203.902 49.756 239.355 49.7558 283.088C49.7558 326.822 85.2095 362.276 128.943 362.276C172.677 362.276 208.13 326.822 208.13 283.088C208.13 239.355 172.677 203.902 128.943 203.902Z" fill="#404ECA"/>
<path d="M225.21 566.077C218.671 572.02 208.552 571.537 202.609 564.998L159.459 517.522C153.516 510.983 153.998 500.864 160.537 494.92L509.383 177.86C515.922 171.917 526.041 172.4 531.985 178.939L575.135 226.414C578.96 230.623 580.123 236.315 578.723 241.422C591.762 248.601 603.859 258.018 614.429 269.648C665.905 326.284 661.721 413.927 605.085 465.403C548.449 516.879 460.806 512.695 409.33 456.059C399.378 445.109 391.508 432.999 385.694 420.216L225.21 566.077ZM521.513 451.099C565.247 451.099 600.7 415.646 600.7 371.912C600.7 328.179 565.247 292.725 521.513 292.725C477.779 292.725 442.326 328.179 442.326 371.912C442.327 415.646 477.779 451.099 521.513 451.099Z" fill="#404ECA"/>
<path d="M878.5 368.16C834.8 368.16 799.84 349.92 799.84 322.56V319.52H795.66L796.04 422.5H750.44L750.06 257.96C750.06 193.36 796.42 152.7 870.52 152.7C944.24 152.7 990.6 194.12 990.6 261C990.6 329.02 945.38 368.16 878.5 368.16ZM796.04 261C796.04 298.24 824.16 325.98 872.42 325.98C916.88 325.98 944.62 301.28 944.62 261C944.62 219.58 917.26 195.64 870.52 195.64C822.26 195.64 796.04 218.44 796.04 261ZM1011.31 330.54C1011.31 266.7 1050.83 228.7 1111.25 228.7C1170.91 228.7 1210.81 268.22 1211.19 327.5V422.5H1165.21V383.74L1161.79 384.12V387.54C1161.79 405.02 1140.13 426.3 1099.09 426.3C1046.65 426.3 1011.31 388.3 1011.31 330.54ZM1056.53 327.5C1056.53 361.7 1077.05 383.36 1110.11 383.36C1148.87 383.36 1165.21 360.56 1165.21 327.5C1165.21 293.3 1144.31 271.64 1111.25 271.64C1078.57 271.64 1056.53 294.06 1056.53 327.5ZM1284.76 328.26V422.5H1239.16V333.96C1239.16 268.22 1278.68 230.6 1340.62 230.6V275.06C1307.18 275.44 1284.76 295.2 1284.76 328.26ZM1366.82 422.5V137.5H1412.42V422.5H1366.82ZM1636.75 334.34H1486.27C1487.41 363.6 1508.31 384.88 1541.75 384.88C1567.21 384.88 1584.31 371.96 1590.01 352.96H1636.75C1628.39 400.08 1593.05 426.3 1540.61 426.3C1480.57 426.3 1440.67 386.78 1440.67 327.5C1440.67 268.22 1480.57 228.7 1540.61 228.7C1596.09 228.7 1636.75 263.28 1636.75 322.94V334.34ZM1488.55 303.56H1588.87C1585.07 280.76 1567.59 265.94 1540.99 265.94C1514.39 265.94 1495.39 282.66 1488.55 303.56ZM1812.25 435.8V382.98H1808.83V386.4C1808.83 411.1 1781.09 426.3 1748.03 426.3C1688.37 426.3 1664.81 394.38 1664.81 334.34V232.5H1710.41V337.38C1710.41 368.92 1725.99 383.36 1759.05 383.36C1792.87 383.36 1812.25 361.32 1812.25 329.78V232.5H1858.23V432C1858.23 489 1822.13 521.3 1759.05 521.3C1701.67 521.3 1667.09 496.22 1667.09 443.4H1712.69C1712.69 470.38 1729.03 482.54 1760.57 482.54C1795.15 482.54 1812.25 466.96 1812.25 435.8ZM2102.57 156.5V422.5H2056.59V353.34H1931.95V422.5H1886.35V327.5C1886.35 216.16 1947.53 156.5 2060.77 156.5H2102.57ZM1932.33 311.16H2056.59V199.44H2047.09C1976.41 199.44 1936.51 240.1 1932.33 311.16ZM2130.53 422.5V156.5H2176.13V422.5H2130.53Z" fill="#1D1D1D"/>
</svg>
